<svg id="SvgjsSvg1013" width="288" height="288" xmlns="http://www.w3.org/2000/svg" version="1.1" xmlns:xlink="http://www.w3.org/1999/xlink" xmlns:svgjs="http://svgjs.com/svgjs"><defs id="SvgjsDefs1014"></defs><g id="SvgjsG1015"><svg xmlns="http://www.w3.org/2000/svg" width="288" height="288" viewBox="0 0 32 32"><g transform="rotate(-15 903.372 -5920.762)" fill="#000000" class="color000 svgShape"><path style="line-height:normal;font-variant-ligatures:normal;font-variant-position:normal;font-variant-caps:normal;font-variant-numeric:normal;font-variant-alternates:normal;font-variant-east-asian:normal;font-feature-settings:normal;font-variation-settings:normal;text-indent:0;text-align:start;text-decoration-line:none;text-decoration-style:solid;text-decoration-color:#000;text-transform:none;text-orientation:mixed;shape-padding:0;shape-margin:0;inline-size:0;isolation:auto;mix-blend-mode:normal" fill="#9b9b9b" d="m -1488.7523,-425.48493 c 0.3906,-0.39053 0.3906,-1.02368 0,-1.41421 -0.3905,-0.39054 -1.0236,-0.39054 -1.4142,0 0,0 -10.8831,10.88313 -11.2736,11.27365 -2.7253,2.7253 -2.7253,7.17424 0,9.8995 2.7252,2.72526 7.1742,2.7253 9.8995,0 l 13.3949,-13.39498 c 1.9443,-1.94425 1.9442,-5.12688 0,-7.07107 -1.9441,-1.94419 -5.1268,-1.94425 -7.071,0 l -13.4351,13.43503 c -1.1631,1.16319 -1.1631,3.07945 0,4.24264 1.1632,1.16319 3.0795,1.16319 4.2427,0 l 11.3137,-11.31371 c 0.3905,-0.39052 0.3905,-1.02367 0,-1.41421 -0.3905,-0.39053 -1.0237,-0.39052 -1.4142,0 l -11.3137,11.31371 c -0.3989,0.39891 -1.0153,0.39895 -1.4142,0 -0.399,-0.39895 -0.399,-1.0153 0,-1.41421 l 13.435,-13.43503 c 1.1799,-1.17994 3.0627,-1.17995 4.2426,0 1.18,1.17995 1.18,3.0627 0,4.24264 l -13.3949,13.39498 c -1.961,1.96099 -5.1101,1.96102 -7.0711,0 -1.961,-1.96102 -1.961,-5.11007 0,-7.07107 0.3905,-0.39053 11.2736,-11.27366 11.2736,-11.27366 z" color="#000" font-family="sans-serif" font-weight="400" overflow="visible" class="colord1edf1 svgShape"></path><path style="line-height:normal;font-variant-ligatures:normal;font-variant-position:normal;font-variant-caps:normal;font-variant-numeric:normal;font-variant-alternates:normal;font-variant-east-asian:normal;font-feature-settings:normal;font-variation-settings:normal;text-indent:0;text-align:start;text-decoration-line:none;text-decoration-style:solid;text-decoration-color:#000;text-transform:none;text-orientation:mixed;shape-padding:0;shape-margin:0;inline-size:0;isolation:auto;mix-blend-mode:normal" fill="none" stroke="#9b9b9b" stroke-linecap="round" stroke-linejoin="round" d="m -1488.7523,-425.48493 c 0.3906,-0.39053 0.3906,-1.02368 0,-1.41421 -0.3905,-0.39054 -1.0236,-0.39054 -1.4142,0 0,0 -10.8831,10.88313 -11.2736,11.27365 -2.7253,2.7253 -2.7253,7.17424 0,9.8995 2.7252,2.72526 7.1742,2.7253 9.8995,0 l 13.3949,-13.39498 c 1.9443,-1.94425 1.9442,-5.12688 0,-7.07107 -1.9441,-1.94419 -5.1268,-1.94425 -7.071,0 l -13.4351,13.43503 c -1.1631,1.16319 -1.1631,3.07945 0,4.24264 1.1632,1.16319 3.0795,1.16319 4.2427,0 l 11.3137,-11.31371 c 0.3905,-0.39052 0.3905,-1.02367 0,-1.41421 -0.3905,-0.39053 -1.0237,-0.39052 -1.4142,0 l -11.3137,11.31371 c -0.3989,0.39891 -1.0153,0.39895 -1.4142,0 -0.399,-0.39895 -0.399,-1.0153 0,-1.41421 l 13.435,-13.43503 c 1.1799,-1.17994 3.0627,-1.17995 4.2426,0 1.18,1.17995 1.18,3.0627 0,4.24264 l -13.3949,13.39498 c -1.961,1.96099 -5.1101,1.96102 -7.0711,0 -1.961,-1.96102 -1.961,-5.11007 0,-7.07107 0.3905,-0.39053 11.2736,-11.27366 11.2736,-11.27366 z" color="#000" font-family="sans-serif" font-weight="400" overflow="visible" class="colorStroke586597 svgStroke"></path></g></svg></g></svg>