<svg id="SvgjsSvg1001" width="288" height="288" xmlns="http://www.w3.org/2000/svg" version="1.1" xmlns:xlink="http://www.w3.org/1999/xlink" xmlns:svgjs="http://svgjs.com/svgjs"><defs id="SvgjsDefs1002"></defs><g id="SvgjsG1008" transform="matrix(0.9167,0,0,0.9167,11.995200000000011,11.995200000000011)"><svg xmlns="http://www.w3.org/2000/svg" viewBox="0 0 24 24" width="288" height="288"><g data-name="Attache Document" fill="#9c4747" class="color000 svgShape"><path fill="#b3b0b0" d="M18.5,19h-5a1.5,1.5,0,0,0,0,3H17a.5.5,0,0,0,0-1H13.5a.5.5,0,0,1,0-1h5a1.5,1.5,0,0,1,0,3h-5a2.5,2.5,0,0,1,0-5H19a.5.5,0,0,0,0-1H13.5a3.5,3.5,0,0,0,0,7h5a2.5,2.5,0,0,0,0-5Z" class="color303c42 svgShape"></path><path fill="#b3b0b0" d="M13.5,16h3a.5.5,0,0,0,.5-.5V4.5a.5.5,0,0,0-.15-.35l-4-4A.5.5,0,0,0,12.5,0H5A2,2,0,0,0,3,2V17a2,2,0,0,0,2,2H8.92a.5.5,0,0,0,.46-.3A4.5,4.5,0,0,1,13.5,16ZM14,4a1,1,0,0,1-1-1V1.71L15.29,4Z" class="color303c42 svgShape"></path></g></svg></g></svg>