<svg id="SvgjsSvg1001" width="288" height="288" xmlns="http://www.w3.org/2000/svg" version="1.1" xmlns:xlink="http://www.w3.org/1999/xlink" xmlns:svgjs="http://svgjs.com/svgjs"><defs id="SvgjsDefs1002"></defs><g id="SvgjsG1008" transform="matrix(0.9167,0,0,0.9167,11.995016967773438,11.99513898925781)"><svg xmlns="http://www.w3.org/2000/svg" width="288" height="288" viewBox="0 0 48 48"><g transform="translate(-2044.757 -2238.73)" fill="#cc0059" class="color000 svgShape"><path fill="#dcdcdc" d="m 2092.7566,2262.7297 a 24,24 0 0 0 -24,-24 24,24 0 0 0 -24,24 24,24 0 0 0 24,24 24,24 0 0 0 24,-24 z" class="color04dbdd svgShape"></path><g fill="#46c3db" transform="translate(2050.12 1227.715)" class="colorfff svgShape"><path fill-rule="evenodd" style="line-height:normal;text-indent:0;text-align:start;text-decoration-line:none;text-decoration-style:solid;text-decoration-color:#000;text-transform:none;white-space:normal;isolation:auto;mix-blend-mode:normal;solid-color:#000;solid-opacity:1" d="M25.5133 1025.7382l-15.1035 9.3418-6.1504-1.3457zM28.5954 1025.8144l-4.9063 17.0703-9.1465-4.8027z" color="#000" enable-background="accumulate" font-family="sans-serif" font-weight="400" overflow="visible" fill="#cc0059" class="color000 svgShape"></path><path fill-rule="evenodd" style="line-height:normal;text-indent:0;text-align:start;text-decoration-line:none;text-decoration-style:solid;text-decoration-color:#000;text-transform:none;white-space:normal;isolation:auto;mix-blend-mode:normal;solid-color:#000;solid-opacity:1" d="m 26.5543,1026.2714 -13.1328,11.4649 a 0.50005,0.50005 0 0 0 -0.1601,0.2656 l -1.1739,5.1953 -1.0468,-7.332 z" color="#000" enable-background="accumulate" font-family="sans-serif" font-weight="400" overflow="visible" fill="#cc0059" class="color000 svgShape"></path><path fill-rule="evenodd" style="line-height:normal;text-indent:0;text-align:start;text-decoration-line:none;text-decoration-style:solid;text-decoration-color:#000;text-transform:none;white-space:normal;isolation:auto;mix-blend-mode:normal;solid-color:#000;solid-opacity:1" d="m 14.07,1038.9628 2.2519,1.1817 -3.4551,4.1464 z" color="#000" enable-background="accumulate" font-family="sans-serif" font-weight="400" overflow="visible" fill="#cc0059" class="color000 svgShape"></path></g></g></svg></g></svg>